<?xml version="1.0" standalone="no"?>
<!DOCTYPE svg PUBLIC "-//W3C//DTD SVG 20010904//EN"
 "http://www.w3.org/TR/2001/REC-SVG-20010904/DTD/svg10.dtd">
<svg version="1.0" xmlns="http://www.w3.org/2000/svg"
 width="505.000000pt" height="197.000000pt" viewBox="0 0 505.000000 197.000000"
 preserveAspectRatio="xMidYMid meet">

<g transform="translate(0.000000,197.000000) scale(0.100000,-0.100000)"
fill="#000000" stroke="none">
<path d="M1393 1791 c-67 -31 -90 -100 -59 -175 7 -18 37 -52 65 -76 30 -25
51 -51 51 -63 0 -18 -5 -19 -65 -14 l-65 6 0 -68 0 -68 31 -7 c54 -10 148 -7
182 8 52 22 79 59 85 115 6 61 -24 118 -87 169 -47 38 -45 52 5 52 l34 0 0 64
c0 58 -2 64 -22 70 -44 11 -113 5 -155 -13z"/>
<path d="M207 1793 c-4 -3 -7 -30 -7 -60 l0 -53 45 0 45 0 0 -175 0 -175 80 0
80 0 0 175 0 175 40 0 40 0 0 60 0 60 -158 0 c-87 0 -162 -3 -165 -7z"/>
<path d="M570 1566 l0 -236 75 0 74 0 3 58 3 57 35 -57 35 -58 88 0 89 0 -20
33 c-10 17 -29 50 -41 73 l-23 41 25 36 c49 72 44 160 -12 220 -47 51 -76 60
-208 65 l-123 4 0 -236z m219 72 c14 -24 14 -28 -3 -47 -11 -12 -30 -21 -43
-21 -21 0 -23 4 -23 51 0 49 1 50 27 47 17 -2 33 -13 42 -30z"/>
<path d="M1000 1565 l0 -235 140 0 140 0 0 60 0 60 -65 0 -65 0 0 30 0 30 65
0 65 0 0 55 0 55 -65 0 -65 0 0 30 0 30 65 0 65 0 0 60 0 60 -140 0 -140 0 0
-235z"/>
<path d="M1610 1741 l0 -60 43 -3 42 -3 5 -175 c4 -156 8 -180 28 -221 43 -88
122 -148 222 -170 44 -9 50 -14 50 -36 0 -13 3 -23 8 -21 50 23 232 119 232
123 0 3 -54 32 -120 65 -107 54 -120 58 -120 40 0 -26 -34 -26 -78 0 -58 36
-72 83 -72 253 l0 147 45 0 45 0 0 60 0 60 -165 0 -165 0 0 -59z"/>
<path d="M1980 1565 l0 -235 145 0 145 0 0 60 0 60 -65 0 -65 0 0 175 0 175
-80 0 -80 0 0 -235z"/>
<path d="M2310 1565 l0 -235 140 0 140 0 0 60 0 60 -65 0 -65 0 0 30 0 30 60
0 60 0 0 55 0 55 -60 0 -60 0 0 30 0 30 60 0 60 0 0 60 0 60 -135 0 -135 0 0
-235z"/>
<path d="M2240 881 c-72 -22 -138 -79 -164 -143 -20 -46 -21 -138 -2 -182 20
-47 73 -104 120 -128 56 -30 156 -30 211 -1 88 46 138 125 138 219 0 109 -67
199 -171 230 -49 15 -93 17 -132 5z m123 -161 c67 -53 28 -170 -57 -170 -68 0
-117 63 -96 123 22 65 100 88 153 47z"/>
<path d="M4260 881 c-49 -15 -89 -41 -122 -81 -150 -174 12 -441 236 -390 153
34 235 203 167 343 -48 100 -178 159 -281 128z m132 -171 c27 -28 30 -36 25
-73 -11 -82 -93 -114 -156 -61 -26 21 -31 33 -31 69 0 90 98 129 162 65z"/>
<path d="M927 651 c-48 -126 -87 -231 -87 -235 0 -3 32 -6 70 -6 66 0 71 2 80
25 9 23 14 25 78 25 64 0 70 -2 80 -25 11 -23 17 -25 82 -25 38 0 70 2 70 5 0
8 -161 428 -171 448 -7 13 -22 17 -62 17 l-53 0 -87 -229z m161 -61 c11 -29
10 -30 -20 -30 -25 0 -29 3 -23 18 4 9 10 25 12 34 7 23 19 15 31 -22z"/>
<path d="M1310 707 c0 -162 2 -177 23 -217 32 -60 81 -84 172 -84 82 0 126 20
162 74 22 31 23 43 23 216 l0 184 -70 0 -70 0 0 -144 c0 -161 -8 -196 -43
-196 -43 0 -47 15 -47 182 l0 158 -75 0 -75 0 0 -173z"/>
<path d="M1720 820 l0 -60 40 0 40 0 2 -172 3 -173 75 0 75 0 3 173 2 172 40
0 40 0 0 60 0 60 -160 0 -160 0 0 -60z"/>
<path d="M2582 648 l3 -233 72 -3 72 -3 3 83 3 83 44 -62 c24 -35 47 -63 50
-63 3 0 24 28 46 62 l40 63 5 -80 5 -80 73 -3 72 -3 0 236 0 235 -60 0 -60 0
-56 -85 c-32 -47 -61 -85 -65 -85 -5 0 -34 38 -65 85 l-57 85 -64 0 -63 0 2
-232z"/>
<path d="M3249 853 c-102 -266 -159 -421 -159 -431 0 -8 21 -12 68 -12 64 0
70 2 80 25 11 23 17 25 77 25 60 0 66 -2 77 -25 10 -23 16 -25 80 -25 48 0 68
4 68 13 0 6 -38 111 -84 232 l-84 220 -56 3 c-53 3 -57 2 -67 -25z m85 -270
c6 -20 4 -23 -18 -23 -29 0 -31 6 -15 47 11 30 19 24 33 -24z"/>
<path d="M3537 873 c-4 -3 -7 -30 -7 -60 l0 -53 45 0 45 0 0 -152 c0 -129 -3
-160 -20 -195 -30 -67 -130 -114 -130 -62 0 11 -3 19 -7 17 -5 -2 -59 -29
-122 -61 l-114 -59 32 -19 c18 -11 72 -39 121 -64 90 -45 90 -45 90 -21 0 21
7 26 50 35 102 22 184 84 224 170 18 41 21 68 24 229 l4 182 44 0 44 0 0 60 0
60 -158 0 c-87 0 -162 -3 -165 -7z"/>
<path d="M3880 645 l0 -235 80 0 80 0 0 235 0 235 -80 0 -80 0 0 -235z"/>
<path d="M4604 867 c-2 -7 -3 -111 -2 -232 l3 -220 72 -3 72 -3 3 88 3 88 63
-87 63 -88 60 0 59 0 0 235 0 236 -72 -3 -73 -3 -3 -84 -3 -83 -61 86 -61 86
-59 0 c-38 0 -60 -4 -64 -13z"/>
</g>
</svg>
